HIERARCHY
ROOT hip
{
	OFFSET 0.000000 0.000000 0.000000 
	CHANNELS 6 Xposition Yposition Zposition Zrotation Xrotation Yrotation
	JOINT abdomen
	{
		OFFSET 0.000000 3.402643 0.000000 
		CHANNELS 3 Zrotation Xrotation Yrotation
		JOINT chest
		{
			OFFSET 0.000000 8.438565 -0.680529 
			CHANNELS 3 Zrotation Xrotation Yrotation
			JOINT neck
			{
				OFFSET 0.000000 10.207942 -0.272212 
				CHANNELS 3 Zrotation Xrotation Yrotation
				JOINT head
				{
					OFFSET 0.000000 3.130431 0.000000 
					CHANNELS 3 Zrotation Xrotation Yrotation
					End Site
					{
						OFFSET 0.000000 3.130435 0.000000 
					}
				}
			}
			JOINT lCollar
			{
				OFFSET 3.470700 6.669187 -0.816635 
				CHANNELS 3 Zrotation Xrotation Yrotation
				JOINT lShldr
				{
					OFFSET 3.198488 0.000000 0.000000 
					CHANNELS 3 Zrotation Xrotation Yrotation
					JOINT lForeArm
					{
						OFFSET 10.139888 0.000000 0.000000 
						CHANNELS 3 Zrotation Xrotation Yrotation
						JOINT lHand
						{
							OFFSET 8.370511 0.000000 0.000000 
							CHANNELS 3 Zrotation Xrotation Yrotation
							End Site
							{
								OFFSET 4.083176 0.000000 0.000000 
							}
						}
					}
				}
			}
			JOINT rCollar
			{
				OFFSET -3.470700 6.669187 -0.816635 
				CHANNELS 3 Zrotation Xrotation Yrotation
				JOINT rShldr
				{
					OFFSET -3.198488 0.000000 0.000000 
					CHANNELS 3 Zrotation Xrotation Yrotation
					JOINT rForeArm
					{
						OFFSET -10.139888 0.000000 0.000000 
						CHANNELS 3 Zrotation Xrotation Yrotation
						JOINT rHand
						{
							OFFSET -8.370511 0.000000 0.000000 
							CHANNELS 3 Zrotation Xrotation Yrotation
							End Site
							{
								OFFSET -4.083176 0.000000 0.000000 
							}
						}
					}
				}
			}
		}
	}
	JOINT lThigh
	{
		OFFSET 5.308129 -1.633274 1.361059 
		CHANNELS 3 Zrotation Xrotation Yrotation
		JOINT lShin
		{
			OFFSET -2.041588 -20.007561 0.000000 
			CHANNELS 3 Zrotation Xrotation Yrotation
			JOINT lFoot
			{
				OFFSET 0.000000 -19.190928 -1.224953 
				CHANNELS 3 Zrotation Xrotation Yrotation
				End Site
				{
					OFFSET 0.000000 -2.449906 4.627600 
				}
			}
		}
	}
	JOINT rThigh
	{
		OFFSET -5.308129 -1.633274 1.361059 
		CHANNELS 3 Zrotation Xrotation Yrotation
		JOINT rShin
		{
			OFFSET 2.041588 -20.007561 0.000000 
			CHANNELS 3 Zrotation Xrotation Yrotation
			JOINT rFoot
			{
				OFFSET 0.000000 -19.190928 -1.224953 
				CHANNELS 3 Zrotation Xrotation Yrotation
				End Site
				{
					OFFSET 0.000000 -2.449906 4.627600 
				}
			}
		}
	}
}
MOTION
Frames: 13
Frame Time: 0.033333
-0.482040 47.712864 -1.535116 -0.000010 -0.000010 -0.000000 -0.346346 9.296708 -0.305434 2.709356 3.219062 -0.103425 0.466347 -10.194983 0.004498 1.220887 -0.995869 4.943098 -6.114562 11.725639 2.054396 -72.947189 15.738561 10.363276 -8.608585 3.601588 -19.084557 5.932218 -0.060075 -3.367898 7.202889 8.295108 3.364476 50.710236 -4.806398 62.305271 0.568120 25.715616 132.153137 -46.564190 -1.122777 5.565311 4.788914 -11.390332 1.142996 -3.672649 18.797565 -0.018608 -1.359843 -7.699872 0.736423 -3.891732 -11.314852 -0.754627 3.594851 18.583471 -0.260572 0.161301 -7.708060 -1.594228 
-0.482040 47.712864 -1.535116 -0.000010 -0.000010 -0.000000 -0.346346 9.296708 -0.305434 2.709356 3.219062 -0.103425 0.466347 -10.194983 0.004498 1.820507 -3.845720 4.985423 -6.114562 11.725639 2.054396 -72.947189 15.738561 10.363276 -8.608585 3.601588 -19.084557 5.932218 -0.060075 -3.367898 7.202889 8.295108 3.364476 50.351387 -5.334940 63.022640 0.774993 25.652782 132.501648 -45.316528 -1.152872 4.404463 4.788914 -11.390332 1.142996 -3.672649 18.797565 -0.018608 -1.359843 -7.699872 0.736423 -3.891732 -11.314852 -0.754627 3.594851 18.583471 -0.260572 0.161301 -7.708060 -1.594228 
-0.482040 47.712864 -1.535116 -0.000010 -0.000010 -0.000000 -0.346346 9.296708 -0.305434 2.709356 3.219062 -0.103425 0.466347 -10.194983 0.004498 1.451919 -5.467004 5.031182 -6.114562 11.725639 2.054396 -72.947189 15.738561 10.363276 -8.608585 3.601588 -19.084557 5.932218 -0.060075 -3.367898 7.202889 8.295108 3.364476 49.995872 -5.830969 64.280624 1.118569 25.525309 133.308960 -44.077641 -1.168388 3.238820 4.788914 -11.390332 1.142996 -3.672649 18.797565 -0.018608 -1.359843 -7.699872 0.736423 -3.891732 -11.314852 -0.754627 3.594851 18.583471 -0.260572 0.161301 -7.708060 -1.594228 
-0.482040 47.712864 -1.535116 -0.000010 -0.000010 -0.000000 -0.346346 9.296708 -0.305434 2.709356 3.219062 -0.103425 0.466347 -10.194983 0.004498 -0.636808 -4.589562 5.017293 -6.114562 11.725639 2.054396 -72.947189 15.738561 10.363276 -8.608585 3.601588 -19.084557 5.932218 -0.060075 -3.367898 7.202889 8.295108 3.364476 49.646507 -6.264790 65.708252 1.540412 25.391445 134.362228 -42.853886 -1.186272 2.078842 4.788914 -11.390332 1.142996 -3.672649 18.797565 -0.018608 -1.359843 -7.699872 0.736423 -3.891732 -11.314852 -0.754627 3.594851 18.583471 -0.260572 0.161301 -7.708060 -1.594228 
-0.482040 47.712864 -1.535116 -0.000010 -0.000010 -0.000000 -0.346346 9.296708 -0.305434 2.709356 3.219062 -0.103425 0.466347 -10.194983 0.004498 -3.536500 -1.579019 5.145963 -6.114562 11.725639 2.054396 -72.947189 15.738561 10.363276 -8.608585 3.601588 -19.084557 5.932218 -0.060075 -3.367898 7.202889 8.295108 3.364476 49.313618 -6.660714 66.926735 1.968146 25.290268 135.429199 -41.625961 -1.206020 0.935849 4.788914 -11.390332 1.142996 -3.672649 18.797565 -0.018608 -1.359843 -7.699872 0.736423 -3.891732 -11.314852 -0.754627 3.594851 18.583471 -0.260572 0.161301 -7.708060 -1.594228 
-0.482040 47.712864 -1.535116 -0.000010 -0.000010 -0.000000 -0.346346 9.296708 -0.305434 2.709356 3.219062 -0.103425 0.466347 -10.194983 0.004498 -5.973694 2.748689 5.520867 -6.114562 11.725639 2.054396 -72.947189 15.738561 10.363276 -8.608585 3.601588 -19.084557 5.932218 -0.060075 -3.367898 7.202889 8.295108 3.364476 48.980301 -7.103480 67.555435 2.339851 25.224127 136.295685 -40.432308 -1.228319 -0.198790 4.788914 -11.390332 1.142996 -3.672649 18.797565 -0.018608 -1.359843 -7.699872 0.736423 -3.891732 -11.314852 -0.754627 3.594851 18.583471 -0.260572 0.161301 -7.708060 -1.594228 
-0.482040 47.712864 -1.535116 -0.000010 -0.000010 -0.000000 -0.346346 9.296708 -0.305434 2.709356 3.219062 -0.103425 0.466347 -10.194983 0.004498 -6.995502 7.609620 5.843020 -6.114562 11.725639 2.054396 -72.947189 15.738561 10.363276 -8.608585 3.601588 -19.084557 5.932218 -0.060075 -3.367898 7.202889 8.295108 3.364476 48.635525 -7.696115 67.245529 2.582835 25.182638 136.715317 -39.254692 -1.245185 -1.320280 4.788914 -11.390332 1.142996 -3.672649 18.797565 -0.018608 -1.359843 -7.699872 0.736423 -3.891732 -11.314852 -0.754627 3.594851 18.583471 -0.260572 0.161301 -7.708060 -1.594228 
-0.482040 47.712864 -1.535116 -0.000010 -0.000010 -0.000000 -0.346346 9.296708 -0.305434 2.709356 3.219062 -0.103425 0.466347 -10.194983 0.004498 -6.816047 12.249453 5.846097 -6.114562 11.725639 2.054396 -72.947189 15.738561 10.363276 -8.608585 3.601588 -19.084557 5.932218 -0.060075 -3.367898 7.202889 8.295108 3.364476 48.247787 -8.550794 65.627579 2.629329 25.179680 136.474655 -38.101715 -1.260298 -2.416785 4.788914 -11.390332 1.142996 -3.672649 18.797565 -0.018608 -1.359843 -7.699872 0.736423 -3.891732 -11.314852 -0.754627 3.594851 18.583471 -0.260572 0.161301 -7.708060 -1.594228 
-0.482040 47.712864 -1.535116 -0.000010 -0.000010 -0.000000 -0.346346 9.296708 -0.305434 2.709356 3.219062 -0.103425 0.466347 -10.194983 0.004498 -5.889775 15.886777 5.494478 -6.114562 11.725639 2.054396 -72.947189 15.738561 10.363276 -8.608585 3.601588 -19.084557 5.932218 -0.060075 -3.367898 7.202889 8.295108 3.364476 47.720211 -9.701680 62.303913 2.397264 25.218283 135.344925 -36.982822 -1.270901 -3.482881 4.788914 -11.390332 1.142996 -3.672649 18.797565 -0.018608 -1.359843 -7.699872 0.736423 -3.891732 -11.314852 -0.754627 3.594851 18.583471 -0.260572 0.161301 -7.708060 -1.594228 
-0.482040 47.712864 -1.535116 -0.000010 -0.000010 -0.000000 -0.346346 9.296708 -0.305434 2.709356 3.219062 -0.103425 0.466347 -10.194983 0.004498 -4.674846 17.698534 4.968985 -6.114562 11.725639 2.054396 -72.947189 15.738561 10.363276 -8.608585 3.601588 -19.084557 5.932218 -0.060075 -3.367898 7.202889 8.295108 3.364476 47.011066 -11.062974 56.839890 1.843490 25.389397 133.094284 -35.907169 -1.274237 -4.512755 4.788914 -11.390332 1.142996 -3.672649 18.797565 -0.018608 -1.359843 -7.699872 0.736423 -3.891732 -11.314852 -0.754627 3.594851 18.583471 -0.260572 0.161301 -7.708060 -1.594228 
-0.482040 47.712864 -1.535116 -0.000010 -0.000010 -0.000000 -0.346346 9.296708 -0.305434 2.709356 3.219062 -0.103425 0.466347 -10.194983 0.004498 -3.700540 17.183016 4.629176 -6.114562 11.725639 2.054396 -72.947189 15.738561 10.363276 -8.608585 3.601588 -19.084557 5.932218 -0.060075 -3.367898 7.202889 8.295108 3.364476 46.145958 -12.213714 49.822979 0.916858 25.842926 129.544571 -34.873993 -1.299311 -5.508481 4.788914 -11.390332 1.142996 -3.672649 18.797565 -0.018608 -1.359843 -7.699872 0.736423 -3.891732 -11.314852 -0.754627 3.594851 18.583471 -0.260572 0.161301 -7.708060 -1.594228 
-0.482040 47.712864 -1.535116 -0.000010 -0.000010 -0.000000 -0.346346 9.296708 -0.305434 2.709356 3.219062 -0.103425 0.466347 -10.194983 0.004498 -3.417728 15.023275 4.588067 -6.114562 11.725639 2.054396 -72.947189 15.738561 10.363276 -8.608585 3.601588 -19.084557 5.932218 -0.060075 -3.367898 7.202889 8.295108 3.364476 45.730457 -12.608746 46.146603 -0.347311 26.876614 124.528786 -33.913517 -1.302865 -6.443320 4.788914 -11.390332 1.142996 -3.672649 18.797565 -0.018608 -1.359843 -7.699872 0.736423 -3.891732 -11.314852 -0.754627 3.594851 18.583471 -0.260572 0.161301 -7.708060 -1.594228 
-0.482040 47.712864 -1.535116 -0.000010 -0.000010 -0.000000 -0.346346 9.296708 -0.305434 2.709356 3.219062 -0.103425 0.466347 -10.194983 0.004498 -4.016746 12.207175 4.717181 -6.114563 11.725648 2.054399 -72.947189 15.738561 10.363276 -8.608585 3.601588 -19.084564 5.932219 -0.060075 -3.367899 7.202889 8.295108 3.364476 45.730457 -12.608747 46.146606 -1.677904 28.800861 118.322754 -33.025246 -1.307909 -7.297757 4.788914 -11.390348 1.142997 -3.672649 18.797565 -0.018608 -1.359842 -7.699863 0.736423 -3.891732 -11.314853 -0.754627 3.594851 18.583471 -0.260572 0.161301 -7.708060 -1.594228 
